<?xml version="1.0" encoding="utf-8"?>
<!-- Generator: Adobe Illustrator 18.0.0, SVG Export Plug-In . SVG Version: 6.00 Build 0)  -->
<!DOCTYPE svg PUBLIC "-//W3C//DTD SVG 1.1//EN" "http://www.w3.org/Graphics/SVG/1.1/DTD/svg11.dtd">
<svg version="1.1" id="Layer_1" xmlns="http://www.w3.org/2000/svg" xmlns:xlink="http://www.w3.org/1999/xlink" x="0px" y="0px"
	 viewBox="0 0 256.2 283.5" enable-background="new 0 0 256.2 283.5" xml:space="preserve">
<g>
	<g>
		<g>
			<path fill="#0E0E9A" d="M102.5,276.3c2.2,0,6-0.7,9-5.5c-1.7-3.8-2.9-11.4-3.1-14.2c-0.9-14.3,4.6-27.7,10.6-28
				c4.4-0.3,7.9,3.9,8.3,10.7c1.1,17.8-4.8,25.2-7.8,31.6c0.5,2.5,4.7,6.7,8.7,6.7c1.5,0,3.2-0.7,3.7-1.3c-0.3-1-0.6-2.3-0.6-4.3
				c0-10.3,6.6-19,12.4-19c4.6,0,7.2,6,7.2,10c0,4.7-4,8.5-9.8,12.2c1,1,2.9,1.8,4.6,1.8c8.4,0,12.8-10.1,16-19.4
				c0.6-1.8,1.6-4.3,3.7-4.3c3.5,0,5,23.2,10.9,23.2c2.5,0,4.6-5.1,4.6-9.1c0-2.9-1-3.2-1-7.5c0-4.7,2.5-8.7,5.9-8.7
				c2.1,0,2.8,2,2.8,4.5c0,9.4-6.8,26.9-16.8,26.9c-7.5,0-6.9-12.9-9.6-12.9c-3,0-7.1,13.1-21.6,13.1c-2.4,0-4.9-1.2-6.9-3.5
				c-3.5,2.4-6.5,3.4-9.9,3.4c-5.4,0-7.8-5.6-10-5.6c-2.6,0-5.6,5.7-14.4,5.7c-7.1,0-8.2-9.4-10.7-9.4c-2.2,0-5.6,9.4-9.3,9.4
				c-6.2,0-7.5-16.3-12.9-16.3c-4.3,0-17.7,16.6-21.4,16.2c-1.5-0.2-2.1-1.3-1.9-2.7c0.2-2,2-7.5,2.7-10.1c1.2-4.5,2.3-9.4,2.9-10.9
				c0.6-1.6,2.2-2.7,3.5-2.6c0.7,0.1,0.9,1.3,1.1,2.3c0.7,3.6,1.8,7.3,2.9,7.3c2.1,0,8.9-13.1,12.9-13.1c4.9,0,5.4,20.6,12.1,20.6
				c2.2,0,3.8-2.6,5.3-5.9c0.1-5.4,1.6-13.2,6-13.2c3.1,0,4.6,6.9,2.3,12.9C94.7,274.5,99.4,276.3,102.5,276.3z M220.1,258.6
				c-1.8,7.6-7.3,18.7-15.6,18.7c-1.9,0-5.3-0.7-5.3-2.7c0-2.1,12.9-2.3,12.9-12.2c0-3.7-3.4-8.8-8.4-8.8c-6.6,0-13.1,7.2-13.1,17.2
				c0,9,5.6,11.9,11.1,11.9c9.7,0,15.6-7.9,18.7-14.6c1.5,4.4,2.3,14.6,6,14.6c1.5,0,2.5-0.7,4.3-4.7c4.4-9.9,8.7-21.2,14.6-21.2
				c2.2,0,0.9,4,6.2,4c2.5,0,4.3-2.1,4.3-4.4c0-3.4-3.1-6-7.8-6c-13.8,0-16.8,20.7-19,20.7c-3.7,0-2.5-16.6-5.1-16.6
				C221.5,254.5,220.4,257.3,220.1,258.6z M122.5,243.1c-0.3-4.1-1.2-6-3.5-5.8c-2.9,0.2-4.3,9.4-3.7,19.1c0.4,6.3,1.3,7.3,2.2,7.2
				C119.2,263.5,123.1,252.2,122.5,243.1z M98.6,234.5c-0.2-2.4-2.1-4-4.6-4c-2.8,0-5.4,2.9-5.1,6.6c0.2,2.4,1.6,4.4,4.4,4.4
				C96.6,241.6,98.9,237.9,98.6,234.5z M144.4,264.5c0-2.5-1.3-4.6-2.9-4.6c-1.3,0-4.4,1.5-4.4,6.2c0,3.7,1.3,5.4,1.9,6.2
				C143.2,271,144.4,267.4,144.4,264.5z M201.8,259.5c3.1,0,4,3.7,3.2,5.9c-0.7,2.2-3.4,4.7-7.5,5.4
				C196.7,268.6,196.2,259.5,201.8,259.5z M32.5,249.1c-0.4-1.3-1.6-4.3-2-6.6c-0.7-4.9,1.8-8.1,4.2-8.9c2.6-0.7,3.7,0.6,4.7,3.7
				c1.3,4.7,1.5,10.9,1,19.7c-0.6,12.1-6.6,26.6-21.6,26.3C5.9,283,0.2,274.6-0.4,261.9c-0.3-6,0.1-12.1,2.6-20.6
				c1.3-4.6,2.5-6.2,6.6-7.1c3.2-0.6,2.9,2.8,2.2,6.8c-1.6,8.8-2.4,13.1-1.8,23.1c0.6,10.6,5.4,14.7,10.7,14.7
				c7.9,0.2,11.5-6.5,12.9-16C34.2,255.1,33.3,251.4,32.5,249.1z"/>
		</g>
	</g>
	<g>
		<path fill="#0E0E9A" d="M205.9,57.8c1,7.4,12.2,17.4,15.3,17.2c2-0.2,2.8-9.7,2.8-17.2c0-4.3,0.2-7.6-2-8.4
			C218.4,56.6,209,58.1,205.9,57.8z M206.6,54.5c8.1,0,15.5-6.5,15.5-12.2c0-2.7-1.3-4.8-4.5-5.2c0.5,0.7,0.8,1.2,0.8,2.5
			c0,4.3-6.5,9.1-13.6,9.1c-2.6,0-3.4,1.8-3.4,2.7C201.4,53.6,203.5,54.5,206.6,54.5z M204.9,45.7c-1.1,0-2.7,0-3.5-1.7
			c-0.7-1.4-0.5-3.7-1.8-4.7c1.3,0.4,2.7,0.4,3.8,0.4c3.5,0,6.9-2.4,9.5-2.4c1.7,0,2.2,1.1,2.2,2.2
			C215.1,42.9,208.1,45.7,204.9,45.7z"/>
		<path fill="#0E0E9A" d="M30.4,106.9c2.6,0,2.1-16.2,6.4-16.2c1,0,1.3,1,1.3,2.3c0,3.7-1.8,9.1-1.8,12c0,1.5,0.4,2,1.1,2
			c1.9,0,5.2-17.9,8.3-17.9c1,0,1.5,1,1.5,2c0,3.7-4.8,14.5-4.8,17.5c0,0.5,0.2,0.9,0.5,0.9c2,0,5.9-8.4,7.1-12.6
			c0.7-2.2,1.6-3.4,2.5-3.4c0.8,0,1.5,0.9,1.5,2.7c0,4.2-3.9,14.1-7.3,20.8c-2.7,5.1-6.8,12.6-6.8,16.7c0,2.1,0.4,4.3,3.4,6.9
			c-5-0.3-7-0.8-8.9-4.7c-8.3,16.6,15.4,15,7.3,29.7c-1.5-2.6-13.2-5.4-13.2-20.8c0-13.3,11.7-21.1,11.7-26.7c0-1.1-0.4-2-1.4-2.9
			c-2.6-2.2-2.7-4-4.7-4c-1.5,0-3.3,3.4-1.4,6.5c0.6,1,1.2,1.6,1.2,2.6c0,2.2-3.4,8-5.8,8c-2.4,0-4.3-6-4.3-15.7
			c0-8.6,1.9-17.2,4.4-17.2c0.7,0,0.9,0.5,0.9,1.1c0,1-0.3,3-0.3,6.5C28.8,106.6,29.6,106.9,30.4,106.9z"/>
		<path fill="#0E0E9A" d="M50.2,129.7c3.3,0,6-2.4,6-7.8v-8c0-3,0.2-6.5,2.3-8.9c-0.2,1-0.2,2.1-0.2,3.1c0,6.7,3.7,11.3,3.7,17.8
			c0,2.4-0.7,3.7-2.6,3.7c-1.8,0-1.6-1.6-2-1.6c-0.3,0-0.8,1-0.8,2.1c0,1.6,1.2,4.2,4.4,4.2c2.8,0,5.1-2.6,5.1-5.5
			c0-7-5.5-14.8-5.5-22.3c0-3.3,0.9-5.5,1.6-7.2c0,15.5,13.2,26.8,13.2,33.3c0,1.5-1.1,2.7-2.7,2.7c-1.8,0-2.7-1.4-2.7-2.5
			c0-0.5-0.1-0.7-0.3-0.7c-0.5,0-1.9,1.6-1.9,3.6c0,2.6,2.1,5.7,6,5.7c4.4,0,6.9-3.7,6.9-7.1c0-8.2-16-20.6-16-33.9
			c0-2.3,0.4-5.9,2-8.7c-10.3,6.6-13.5,15.4-13.5,23.2c0,6.7-0.2,10.1-3.7,10.1c-1.8,0-2.3-1.6-2.9-1.6c-0.5,0-0.7,1.4-0.7,1.8
			C46,128.1,48.1,129.7,50.2,129.7z"/>
		<path fill="#0E0E9A" d="M185.4,51.8c3.4,0,6-1.6,6-2.5c0-0.3-0.5-0.5-1.5-0.5s-3-0.1-6.9-0.7c-3.3-0.5-5.8-1.8-6.7-1.8
			c-0.3,0-0.5,0.2-0.5,0.4C175.9,48.7,179.7,51.8,185.4,51.8z M168.4,41.9c1-0.7,5.4,0.4,11.1-2.4c0.7-0.4,1.4-0.5,2-0.5
			c2.7,0,2,3.1,4.5,3.1c1.9,0,4.4-1.6,5.9-1.6c2.3,0,5.7,7.3,5.7,10.8c0,4-6,6.4-13.1,6.4c-10.4,0-16.6-9-16.6-14.9
			C168,42.2,168.2,42,168.4,41.9z"/>
		<path fill="#0E0E9A" d="M51.9,159.1c-2.6,0.6-6.7,4.7-6.7,11.1c0,7.6,8.2,19.4,21.7,19.4c11.4,0,14.2-7.9,14.2-13.2
			c0-11.8-7.2-20.1-16.7-20.1c-5.2,0-9.8,3.7-9.8,9.3c0,5.2,3.9,12.9,13.2,12.9c4.4,0,6.9-3.1,6.9-6.7c0-3.5-3.2-8.3-7.9-8.3
			c-1.4,0-2.4,0.9-2.4,2.4c0,1.9,2.6,3.7,5.8,3.7c0.8,0,1.4-0.2,1.7-0.3c0.2,0.2,0.2,0.6,0.2,0.9c0,1.8-1.7,2.9-4.4,2.9
			c-4,0-7.8-3-7.8-7.7c0-2.8,2.4-4.8,5.9-4.8c6.9,0,11.1,6.2,11.1,12.3c0,5.5-3,8.7-9.3,8.7C55.2,181.8,49.2,170.5,51.9,159.1z"/>
		<path fill="#0E0E9A" d="M134.9,189.3c0,1.7,1.4,3.1,3.1,3.1c1.7,0,3.1-1.4,3.1-3.1s-1.4-3.1-3.1-3.1
			C136.3,186.1,134.9,187.5,134.9,189.3z M140.9,204.8c3.7,0,3.5-0.3,4.7-0.3c1.2,0,1.2,0.7,1.2,1.2c0,1.7-3.8,3.8-10.6,3.8
			c-4,0-6.4-2.1-7.1-4.5c-3.9,2.5-9.8,4.8-15.7,4.8c-16,0-20-6.9-25-9.2c-3.8-1.7-9.7,1.6-17.9-7.5c1.1,0.2,2.6,0.3,3.7,0.3
			c7.2,0,11-3.5,11-9.1c0-0.7-0.1-1.5-0.2-2.2c2.2,0.9,7.2,4.6,8.3,11.2c0.2,0.8,3.4,1.5,5.4,1.5c2.8,0,6.4-1.2,6.9-5.8
			c9.4-0.8,15.7-6.3,17-13.3c3.3,1.1,7.2,4.1,8.1,5.7c1.3-0.5,2.9-0.7,4.7-0.7c2.5,0,5.3,0.5,8.7,1.5c0.2-1,0.3-2.3,1.9-2.3
			c2.3,0,1.7,2.6,2.5,4.1c0.4,0.8,2.3,1.2,2.3,2.8c0,1.5-1.3,2-2,2c-0.3,0-0.7-0.1-0.9-0.2c-1.6,0.5-1.6,11.8-8.2,11.8
			c-4.8,0-9.3-4-11.2-9c-0.5-1.5-1.7-2.4-2.8-2.4c-1.2,0-1.9,0.2-3.4,1.9c-4.2,4.6-11.2,8.6-19.9,8.6c-2.7,0-4.8-0.2-5.3-0.2
			c-0.3,0-0.3,0.1-0.3,0.2c0,0.5,2.7,2.7,8.4,2.7c13.7,0,17.1-7.7,19.3-7.7c0.3,0,1.2,0,1.8,1.2
			C129.6,203.1,136.6,204.8,140.9,204.8z"/>
		<path fill="#0E0E9A" d="M188.2,155.2c-1.6,0-10.7,12.1-16.5,12.1c-1.4,0-2.6-2.7-2.6-4.7c0-1.1,0.7-1.9,3.2-2.4
			c13.4-3,10.4-13.1,21.9-13.1c6.3,0,13.3,4.3,13.3,14c0,10.3-14.7,23.1-16.8,23.1c-1.8,0-3.7-2.6-3.7-4.3c0-0.5,0.2-1.2,1.8-1.9
			c7.5-3,11.8-9.8,11.8-13.3c0-0.8-0.4-1.6-1.4-1.6c-1.3,0-7,12.9-13.3,12.9c-4.4,0-8.8-4-8.8-5.8c0-3.1,12.6-8.9,12.6-13.3
			C189.6,155.2,188.9,155.2,188.2,155.2z M196.7,150.3c-1.1,0-2.3,0.9-2.3,3c0,2.3,1.8,3.8,2.8,4.3c0.5,0.3,1.4,0.6,2.3,0.6
			c2.3,0,4.1-0.6,4.1-2.5C203.5,153.3,200,150.3,196.7,150.3z"/>
		<path fill="#0E0E9A" d="M50.9,60c0,1.7,1.4,3.1,3.1,3.1c1.7,0,3.1-1.4,3.1-3.1c0-1.7-1.4-3.1-3.1-3.1C52.4,56.9,50.9,58.3,50.9,60
			z M46.9,53c0,1.7,1.4,3.1,3.1,3.1c1.7,0,3.1-1.4,3.1-3.1c0-1.7-1.4-3.1-3.1-3.1C48.3,49.8,46.9,51.3,46.9,53z M44.1,74.3
			c-1.8,0.5-5.5,2.7-5.5,6.6c0,2.8,2.2,4.6,4.9,4.6c1.4,0,2.4-0.3,3-0.8c-2.2-2.1-3-4.4-3-6.8C43.5,76.3,43.8,75.3,44.1,74.3z
			 M25,75.4c-0.1,0.4-0.1,0.8-0.1,1.2c0,3.7,1.9,5.7,4.5,5.7c1.9,0,4.2-1.2,6.2-3.7c-0.9,0.2-1.9,0.2-2.8,0.2
			C30,78.8,26.8,78,25,75.4z M22.2,82.4c0,5.9,1.8,8.7,5,8.7c2.5,0,5.8-1.8,9.8-5.2c-3,0.7-5.4,1.2-7.5,1.2
			C26.8,87.1,24.6,86,22.2,82.4z M42.4,51.2c0.4-1.2,0.7-2.8,0.7-4.5c0-3.7-1.7-9.4-7-9.4c-3,0-5.2,2.4-5.2,5.3
			C30.9,48.7,37.1,51.2,42.4,51.2z M35.8,70.8c-2.6,0-5.4-3.2-5.4-6.1c0-1.6,1.2-3.5,2-3.5c0.3,0,0.5,0.2,0.5,0.8
			c0.5,3.8,3,6,5.3,7.1c0.2,0.2,0.4,0.2,0.4,0.4C38.7,70.1,37.2,70.8,35.8,70.8z M43,61.3c0.5,0.7,2,1.6,2,2.2
			c0,1.1-0.6,2.5-1.9,2.5c-2.7,0-4.9-4.1-4.9-6.5c0-1.5,0.9-1.6,2-1.6c0.5,0,0.8,0.1,1.2,0.3C42.1,58.6,42.1,60.1,43,61.3z M24.7,71
			c-0.1,0.2-0.2,0.5-0.2,0.9c0,0.7,0.8,1.5,1.5,1.5c0.6,0,1-0.2,1.3-0.2c1.9,0,4,1.3,7,1.3c1.8,0,3.9-0.5,6.5-1.9
			c5.6-2.8,7.8-9.8,7.8-10.9c0-1.5-1.2-1.3-2.2-2.7c-1-1.4-0.6-2.6-1.2-3.2c-0.4-0.4-1.5-0.4-2.9-0.5c-0.5-0.1-1.1-0.1-1.7-0.1
			c-2.6,0-5.6,0.3-9,2.5C24.8,62,25.7,69.2,24.7,71z M50.6,67.9c-1.7,2-3.5,5.5-3.5,9c0,4.2,2.6,7.7,6.6,7.7c3.8,0,5.6-3.3,5.6-6.6
			C59.2,72.7,54.5,69,50.6,67.9z M33.9,52.9c0,0-2.3,1.7-5.1,1.7c-3.4,0-6-2.5-6-6c0-2.4,1.2-4.9,4.1-6.2c-0.1,0.5-0.1,0.9-0.1,1.3
			C26.8,48.2,29.3,51.6,33.9,52.9z"/>
		<path fill="#0E0E9A" d="M171.4,78.8c0,1.8,1.5,3.3,3.3,3.3c1.8,0,3.3-1.5,3.3-3.3c0-1.8-1.5-3.3-3.3-3.3
			C172.9,75.5,171.4,77,171.4,78.8z M171.6,88.6c0,2,1.6,3.7,3.7,3.7c2,0,3.7-1.6,3.7-3.7c0-2-1.6-3.7-3.7-3.7
			C173.3,84.9,171.6,86.6,171.6,88.6z M160.4,95.2c0,3,2.4,5.4,5.4,5.4c3,0,5.4-2.4,5.4-5.4c0-3-2.4-5.4-5.4-5.4
			C162.8,89.9,160.4,92.3,160.4,95.2z M163.3,84.2c0,1.7,1.4,3.1,3.1,3.1c1.7,0,3.1-1.4,3.1-3.1c0-1.7-1.4-3.1-3.1-3.1
			C164.7,81.1,163.3,82.5,163.3,84.2z M153.1,90.5c0,1.7,1.4,3.1,3.1,3.1c1.7,0,3.1-1.4,3.1-3.1c0-1.7-1.4-3.1-3.1-3.1
			C154.5,87.4,153.1,88.8,153.1,90.5z M161.1,72.2c0,2.7,2.3,5,5,5s5-2.3,5-5c0-2.7-2.3-5-5-5S161.1,69.5,161.1,72.2z M166.9,62.6
			c0,1.6,1.3,3,3,3c1.6,0,3-1.3,3-3c0-1.6-1.3-3-3-3C168.3,59.7,166.9,61,166.9,62.6z M152.8,70.1c0,1.6,1.3,3,2.9,3
			c1.6,0,3-1.3,3-3c0-1.6-1.3-3-3-3C154.2,67.2,152.8,68.5,152.8,70.1z M152.4,80.3c0,2.7,2.1,4.8,4.7,4.8c2.7,0,4.8-2.1,4.8-4.8
			c0-2.7-2.1-4.8-4.8-4.8C154.5,75.5,152.4,77.6,152.4,80.3z M142.6,85.3c0,2.4,2,4.4,4.4,4.4c2.4,0,4.4-2,4.4-4.4
			c0-2.4-2-4.4-4.4-4.4C144.6,80.8,142.6,82.8,142.6,85.3z M145.3,74.3c0,1.7,1.4,3.1,3.1,3.1c1.7,0,3.1-1.4,3.1-3.1
			c0-1.7-1.4-3.1-3.1-3.1C146.7,71.1,145.3,72.6,145.3,74.3z M172.6,98.3c0-1.6,1.4-2.9,2.9-2.9c1.7,0,3,1.3,3,2.9c0,1.8-1.3,3-3,3
			C174.1,101.3,172.6,100.1,172.6,98.3z"/>
		<path fill="#0E0E9A" d="M174.7,188c0.4,0,0.9,0.2,0.9,1.6c0,1.7-0.8,4-3.6,5.8c-2,1.3-4.6,2.4-8.5,2.5c0.6-1.9,1.1-3.8,1.1-5.7
			c0-0.6-0.1-1.1-0.2-1.8h1C171.6,190.4,174.2,188,174.7,188z M175.3,180.3c0.6-0.5,0.8-1.4,0.8-2.3v-1.8c0-2.3-3.4-3.6-8.1-3.6
			c-5.7,0-8.7,2.6-8.7,3.7v3.6c0,1.5,3.4,3,7.7,3C170.2,182.9,173.3,182,175.3,180.3z M179.3,181.1c-2,1.6-6.8,5.1-14.7,5.1
			c-4.2,0-6.1-1.3-6.7-1.3c-0.8,0-1.6,0.8-2.5,1.8c-1.9,2.2-4.3,6.2-4.3,10.7c0,3.1,2.4,6.2,6.9,6.2c14.6,0,25.5-9.1,25.5-16.5
			C183.6,182.9,181.1,181.1,179.3,181.1z"/>
		<path fill="#0E0E9A" d="M182.1,115.5c0,1.9,0.6,4.2,2.6,4.2c1.6,0,3-2.5,3-5.2c0-3.1-0.5-5.5-0.5-6.8c0-0.5,0.2-0.8,0.5-0.8
			c1.2,0.1,2.3,3.3,3.5,3.3c1.4,0,3.5-2.6,4.4-2.6c0.2,0,0.3,0.3,0.3,0.4c0,1.2-1.8,3.8-1.8,4.8c0,0.9,4.5,1,4.5,1.8
			c0,1.2-4.7,1.2-7,2.2c-2.2,0.9-3.5,2.1-3.5,3.7c0,1.6,1.6,1.9,3.8,1.9c5.2,0,8.9-2.8,10-2.8c0.2,0,0.4,0.2,0.4,0.4
			c0,0.8-2.7,3.4-2.7,4.5c0,1.3,4.8,2.9,4.8,3.7c-0.1,0.2-0.4,0.3-0.9,0.3c-0.9,0-2.2-0.2-3.2-0.2c-0.6,0-1.2,0.1-1.4,0.4
			c-0.5,0.6,0.2,4.8-0.9,4.8c-1,0-3.7-9.2-9.7-9.2c-0.9,0-1.5,0.7-1.5,1.9c0,3.1,3,6.7,5.9,8.4c1.3,0.9,3.5,1.7,3.5,2.2
			c0,0.9-5,0.1-5,1.6c0,1.4,0.6,3.5,0.6,4.8c0,0.4-0.1,0.9-0.5,0.9c-0.9,0-3.2-4.3-4.3-4.3c-0.9,0-3,2.6-3.8,2.6
			c-0.2,0-0.4-0.2-0.4-0.5c0-1.8,2.9-5.9,2.9-9.8c0-1.9-0.2-5.9-2.5-5.9c-1.9,0-4,3-4.9,5.9c-0.5,1.7-0.2,8.3-1.4,8.3
			c-1.2,0-0.9-4.4-2.4-4.4c-1.2,0-3.6,2.1-4.5,2.1c-0.2,0-0.3-0.1-0.3-0.2c0-0.9,2.3-4,2.3-4.6c0-1.2-5.2-1.3-5.2-2.3
			c0-0.5,2-0.9,3.9-1.2c4-0.7,9.8-3.6,9.8-7.6c0-4.5-4.4-6.5-7.2-8.3c-1.5-0.9-3.1-1.7-3.1-2.3c0-0.6,1.9-0.6,2.7-0.6
			c1.2,0,2.3-0.1,2.3-1c0-0.7-0.2-2.1-0.2-3.2c0-0.8,0.1-1.4,0.4-1.4c1.2,0,2.8,3.8,3.6,3.8c1.2,0,3-3.1,4.1-3.1
			c0.4,0,0.5,0.2,0.5,0.9C183.6,109.4,182.1,112.7,182.1,115.5z M144.9,92.7c0.9,6.6,9.8,3.3,9.8,11.3c0,1.2-0.3,2.9-0.3,4.4
			c0,1.7,0.2,3.2,1.5,3.2c1.3,0,1.6-0.9,1.6-2.2c0-1.2-0.3-2.8-0.3-3.7c0-2.7,2-3.4,3.1-3.4c3,0,5.2,3,9.7,3c-1,5-11.3,3.7-11.3,9.1
			c0,2.7,2.7,3.4,4.5,3.4c1.6,0,2.2-0.2,2.2-1.6c0-0.8-0.2-1.6-0.2-2.2c0-0.3,0.2-0.6,0.6-0.6c1.7,0,10.1,6.4,10.1,8.4
			c0,1.8-8.9,3.6-11.5,3.6c-0.8,0-0.9-0.5-0.9-0.9c0-0.5,1.3-2.2,1.3-3.1c0-0.7-1.2-1.2-4.3-1.2c-1.5,0-2.6,0.2-2.6,1.3
			c0,2.1,3.4,4.7,3.4,6.6c0,1.6-0.9,2.5-3.4,2.5c-2.1,0-5.3-1.6-5.3-4.4c0-2.2,2.2-4.4,2.2-5.7c0-0.4-0.3-1-1.2-1
			c-2.9,0-3.7,7.6-13.9,8.5c1.6-1.5,3-3.1,3-6.5c0-1.6-0.4-3-0.4-4.8c0-2.3,1.1-3.5,2.6-3.5c2.9,0,4.3,4.1,6.2,4.1
			c1,0,2.1-0.9,2.1-2.3c0-5.9-11.4-5.1-11.4-13.4C142,99.4,142.8,96.6,144.9,92.7z"/>
		<path fill="#0E0E9A" d="M159.7,143.4c0,1.1,0.8,1.9,1.9,1.9c1.2,0,2-1.1,2-2.3c0-1.6-1.5-3.9-2.9-3.9c-0.6,0-0.4,0.9-0.5,2
			C160.1,141.8,159.7,142.8,159.7,143.4z M155.6,133c8.2,1.6,12.6,7.7,12.6,13.5c0,4-2.5,7.6-6.9,7.6c-4,0-6.9-2.7-6.9-7.1
			c0-3.3,2.6-6.7,2.6-10.1C157.1,135.7,156.7,134.3,155.6,133z M145.3,146.3c0.8,0.8,1,1.6,1,2.3c0,1.2-0.5,2.4-0.5,3.7
			c0,1.9,1.4,3.5,3.4,3.5c2.2,0,3.7-1.7,3.7-3.7C152.8,149.2,149.8,146.3,145.3,146.3z M171.1,141.3c0.5,0.9,0.8,1.7,0.8,2.5
			c0,2.2-1.5,4.2-1.5,6.5c0,2.6,2,4.7,4.9,4.7c3.2,0,5.4-2.6,5.4-5.6C180.7,145.2,176.9,141.7,171.1,141.3z M147.1,137.1
			c3.6,0.5,4.5,1.7,4.5,2.7c0,1.7-1.6,2.3-3.1,2.3c-1.1,0-2.3-0.2-3.7-0.2c-1.7,0-3.4,0.4-4.8,2c1,0.2,2.5,0.9,2.5,2.4
			c0,4.5-12.6,0.8-12.6,12.4c0,6.2,6.4,12.9,16.1,12.9c5,0,8.2-1.6,8.2-3.5c0-1.5-2.7-0.5-2.7-1.7c0-0.5,0.9-1.6,0.9-2.4
			c0-0.4-0.3-1.1-0.9-1.1c-1.4,0-4.1,2.3-9.4,2.3c-4.2,0-8.3-2.4-8.3-5.7c0-0.7,0.3-1.1,0.8-1.1c0.5,0,1.1,0.3,1.6,0.3
			c0.5,0,0.5-0.3,0.5-1.2c0-0.9,0-3.3,1.5-3.3c1.5,0,4.3,5.5,15.1,5.5c3.6,0,10.5-0.7,13.1-3c-0.1,8.6-6.8,19.9-20.8,19.9
			c-14.6,0-22.4-11.7-22.4-22.5c0-11.9,9.7-22.8,23.1-22.8c3.4,0,6.3,1.2,6.3,2.6C152.6,136,147.5,134.7,147.1,137.1z"/>
		<path fill="#0E0E9A" d="M96.7,48.1c5.1,0,7.5,4.4,7.5,9.4c0,2.2-0.6,5.4-1.6,5.4c-1,0-0.9-1.8-1-3.4c-0.2-2.1-0.5-2.6-1.2-2.6
			c-1.3,0-2.2,3.1-2.2,6c0,1.8,0.3,3.8,1.7,3.8c0.8,0,1.5-0.4,2-0.9c-0.3,3.6-3,6.7-6.7,6.7c-6.9,0-9.4-8-10.2-12.7
			c-4.1,4.4-8,7.6-14.8,7.6c-6.4,0-9.3-4.7-9.3-9.1c0-1.3,0.5-4.8,2.1-4.8c1.9,0,0.2,6.4,4.1,6.4c0.9,0,2.7-0.8,3.6-3.4
			c0.5-1.6,0.9-3.2,0.9-4.6c0-2.1-0.5-3.4-2-3.4c-1.3,0-3,1-3.5,1.6c1.9-5.6,6.4-8.5,11.4-8.5c6.2,0,9.4,5.5,9.4,11.5
			c0,0.9-0.1,1.8-0.2,2.7C89,51.4,92.7,48.1,96.7,48.1z M90.7,57.3c0-1.3-0.3-1.6-0.6-1.6c-0.8,0-1.6,0.9-2.9,3
			c0.2,2.8,0.6,4.1,1.4,4.1C89.4,62.7,90.7,60,90.7,57.3z M80,60.5c0.9,0,2-0.9,4-3.2c0.2-1,0.2-2,0.2-3.1c0-1.6-0.6-3.3-1.6-3.3
			c-2.3,0-3.5,6.2-3.5,7.9C79,59.7,79.5,60.5,80,60.5z M92.7,67.4c1.9,0,4.1-7.5,4.1-12.2c0-1-0.2-2.1-0.6-2.1
			c-1.6,0-4.4,7.7-4.4,11.9C91.8,66.7,92.2,67.4,92.7,67.4z M73.6,63.1c2.7,0,5.7-14.4,5.7-16.8c0-0.6-0.2-1.1-0.8-1.1
			c-2.4,0-5.8,13.7-5.8,16.7C72.7,62.5,72.9,63.1,73.6,63.1z"/>
		<path fill="#0E0E9A" d="M82.1,69c-3.4,0-3.5,4.1-3.5,12.2c-2.5-5.4-6.6-11.2-11.5-11.2c-3.3,0-4.5,2.2-4.5,6c0,0.8,0.1,2,0.2,2.7
			c0.4-1.3,1.6-1.9,3.2-1.9c3.4,0,7.4,2.6,10.1,6.1c-3-0.5-6-1.1-8.5-1.1c-1.6,0-3,0.2-4.1,0.7c-2.3,1-5.3,4.4-5.3,9.4
			c0,0.8,0.1,1.6,0.2,2.6c2.7-6.1,10-8.8,14.7-8.8c0.9,0,1.6,0.1,2.2,0.2c-2.4,2.2-3,6-3.1,8.6c-0.1,1.2-0.5,1.3-1.4,1.3
			c0,2.6,2,6.4,2,8.3c0,0.7-0.4,1.3-0.8,1.5c0,3.4,3.4,5.9,3.4,8.1c0,0.5-0.2,1-0.4,1.2c0.2,1.4,4,3.8,4.5,4.9
			c0.6,1.4,1.3,1.7,1.7,1.7c1.3,0,3.4-1.6,3.4-3c0-0.5-0.4-1-0.7-1.2c-1.5-1.1-2.3-3.4-2.9-5c-0.5,0-1.3-0.2-1.5-1.1
			c-0.4-1.6-0.4-4.6-1.1-6.4c-1-0.2-1.5-0.6-1.5-2.7c0-1,0.6-5,0.6-6.4c-0.5,0-1.1-0.3-1.1-1.2c0-2.5,2.5-4.4,3.2-7.6
			c4.4,3.3,5.5,6.6,5.5,9.6c0,1.6-0.2,3-0.5,4.4c3.3-1.6,8.2-4.1,8.2-9c0-2.9-1.3-6.1-10.1-7.3c2.7-1,6.2-1.6,9-1.6
			c5,0,7.9,1.6,8.5,5.1c1-1.6,1.8-3.4,1.8-5c0-3.8-3.2-6.3-7.3-6.3c-4.8,0-9,2.5-13.5,5.5c2-4.2,3.4-6.7,5.9-6.7
			c0.4,0,0.8,0.1,1.2,0.2C87.5,72.4,83.9,69,82.1,69z"/>
		<path fill="#0E0E9A" d="M213.5,125.3c3.9,0,7,5.1,7,11c0,6.3-3,13.2-8.3,17.9c-0.1-10.5-13-7.2-13-14.8c0-3.3,2.3-5.5,5.2-5.5
			c2.5,0,4.4,0.7,5.9,2.1c-1.4-1.3-2.1-3.2-2.1-5C208.2,128,210.1,125.3,213.5,125.3z"/>
		<path fill="#0E0E9A" d="M155.6,45.5c-0.6-1-3-1.6-4-1.6c-3.4,0-5.8,2.4-6.2,4.6c-0.3-0.8-0.5-1.7-0.5-2.7c0-3.4,2.3-7.6,8-7.6
			c5,0,6.9,2.7,7.6,2.7c0.8,0,1.6-0.8,2.2-0.8c0.9,0,0.9,1.3,0.9,2.3c0,3.1-1.4,8.5-4.9,10.5c-0.6-1.3-1.9-2.8-3.9-3.7
			c-0.5-0.2-0.8-0.7-0.8-1.2C153.9,47,154.7,45.9,155.6,45.5z M143.9,51.2c2,2,3.8,2.8,6,2.8c0.9,0,1.9-0.2,2.4-0.2
			c0.7,0,1.2,0.3,1.2,0.9c0,0.9-0.8,2.3-1.7,3c0.9,0.4,2,0.5,3,0.5c4.4,0,9.5-2.8,9.5-9.8c0.9,1.2,1.5,3.8,1.5,5
			c0,8.5-6.2,11.8-12,11.8c-3.8,0-5.6-1.2-6.1-1.2c-1.5,0-1.4,3-2.4,2.9c-1.8-0.3-3.4-4.3-3.4-8.5C141.8,55.8,142.5,53.1,143.9,51.2
			z"/>
		<path fill="#0E0E9A" d="M77.1,1.6c0-0.5-2.3-0.9-5.5-0.9c-5.1,0-4.4,4.2-8.3,4.2c-4.1,0-3-4.4-8.2-4.4c-3.1,0-6,0.5-6,1.2
			c0,0.9,3.7,0.5,3.7,3.1c0,2.7-7.9,3.5-7.9,5.1c0,0.5,0.6,0.8,1.4,0.8c1.7,0,4.4-0.8,6.4-0.8c1.1,0,2.1,0.2,2.1,1.2
			c0,2-4.2,5.5-4.2,7c0,0.5,0.4,0.6,0.8,0.6c1.6,0,4.2-4,6.7-4c4.1,0,1.4,8.8,3.7,8.8c2.3,0,1.3-8.7,4.7-8.7c2.7,0,4.8,6,6.6,6
			c0.5,0,0.9-0.4,0.9-0.9c0-1.6-2.3-5-2.3-7.2c0-1.3,0.9-2,2.2-2c1.8,0,4.2,1.1,5.5,1.1c0.5,0,0.9-0.2,0.9-0.7
			c0-1.9-6.9-3.9-6.9-6.3C73.3,2.7,77.1,2.7,77.1,1.6z M95.4,9.5c0,1.4,4.9,4.4,7.2,4.4c1.3,0,1.7-1.8,1.7-3.7c0-2.3-1-2.4-3-2.4
			C98.7,7.9,95.4,8.6,95.4,9.5z M103.5,25c0-4.7-12.7-13.2-12.8-16.8c0-0.3,0.2-0.7,0.5-1c2.2-2.3,11.2-4,11.2-5.9c0-1-1.9-1-2.8-1
			c-7.3,0-17.9,2.7-17.9,5.2c0,2.7,9.5,9.1,9.5,12.3c0,0.9-0.5,1.2-1.4,1.2c-2.6,0-8.4-3.2-11.2-3.2c-1.2,0-1.7,0.9-1.7,2.1
			c0,3.7,4.4,10.8,4.4,12.9c0,0.2-0.1,0.5-0.4,0.5c-1.4,0-8-7.8-10.4-7.8c-0.9,0-0.9,1.2-0.9,2.9v2.7c0,1.8-0.1,2.9-0.9,2.9
			c-2,0-3-5.7-4.9-5.7c-2,0-2.4,10.1-4.4,10.1c-2.3,0-0.3-11.2-2.5-11.2c-2.4,0-5.1,7.4-6.9,7.4c-0.6,0-0.8-0.6-0.8-1.2
			c0-2.3,1.3-5.9,1.3-8.1c0-1.1-0.3-1.7-1.2-1.7c-2.4,0-7.7,3.9-9.8,3.9c-0.3,0-0.7-0.2-0.7-0.5c0-1.9,8.5-7.8,8.5-10.4
			c0-2.6-11.7-0.9-11.7-3.8c0-2.5,8.4-5.1,8.4-7.6c0-2.3-9.9-3.3-13.7-3.3c-4.6,0-7.1,0.5-7.1,1.9c0,2,10.5,2.7,10.5,4.4
			c0,1.7-10.8,6.3-10.8,9c0,2.3,15.3,0.2,15.3,2.6c0,2.6-13.3,14.1-13.3,17.9c0,0.9,0.6,1.2,1.5,1.2c4.1,0,14.6-7.7,17.5-7.7
			c1,0,1.1,1.2,1.1,2.3c0,2-0.7,5.1-0.7,7.4c0,1.8,0.5,3,2,3c2.9,0,5.5-4.9,7.5-4.9c2.5,0,1,14.4,4.8,14.4C61.6,51.6,63,36,65,36
			c2,0,3.7,4.5,5.5,4.5c2.3,0,1.2-7.9,3.7-7.9c2.7,0,10.5,9.4,14,9.4c1.1,0,1.5-0.9,1.5-2c0-4.1-5.8-13.5-5.8-16.5
			c0-0.8,0.2-1,1.1-1c3,0,11.9,4.2,16.2,4.2C102.7,26.8,103.5,26,103.5,25z M32.3,20.4c0,1.6-5.9,6.8-8,6.8c-0.8,0-1-0.9-1-1.8
			c0-1.6,0.7-3.7,1.6-4.4c1-0.9,3.4-1.4,5.1-1.4C31.1,19.6,32.3,19.8,32.3,20.4z M89.6,28.5c0,2.7,9.8,16.1,11.6,16.1
			c1.6,0,2.7-2.7,2.7-5.1c0-0.6-0.2-1.2-0.5-1.7c-1.4-2-11.3-9.8-13.5-9.8C89.8,28,89.6,28.2,89.6,28.5z"/>
		<path fill="#0E0E9A" d="M214.9,4.8c0,1.1,0.9,1.9,2,1.9s2-0.9,2-1.9c0-1.1-0.9-2-2-2S214.9,3.7,214.9,4.8z M202.2,22.1
			c0-5.5-13.3-6.9-13.3-8.2c0-1,7.4-2.7,11.2-2.8C194.3,3.6,186,4.4,186,3c0-0.8,6.2-2.3,12-2.3c4.8,0,9.4,1.1,9.4,4.8
			c0,2-1.6,4.1-1.6,7.3c0,1.7,0.9,3.2,3.1,3.2c2.4,0,3-2.6,3-5.3c0-2.3-0.4-4-0.4-5.1c0-3.3,2.2-5.5,5.4-5.5c2.7,0,3.3,1.2,7.2,1.2
			c-2.1,1.3-2.9,3.5-2.9,4.6c0,3.3,2.1,5.5,2.1,12.2c0,12.3-11.5,16.7-25.7,16.7c-3.9,0-8-0.3-12.1-0.9c-0.6-0.1-0.8-0.2-0.8-0.6
			c0-1,5.5-1.6,5.5-6.6c0-2-0.6-3.8-0.6-4.5c0-0.4,0.3-0.6,0.6-0.6c1.2,0,3.5,4.5,7.9,4.5C199.3,26.1,202.2,25.7,202.2,22.1z
			 M215.4,14.2c0,6.9-5.1,12.2-14.2,13.7c1,0.1,2,0.1,2.9,0.1c10.7,0,14.6-4.8,14.6-8.9C218.7,16.9,217.4,14.8,215.4,14.2z"/>
		<path fill="#0E0E9A" d="M210,114.7c1.2-3.9,2.8-6.6,5.4-10.8c-2.6-1.3-9.4-4.1-9.4-8.7c0-5.4,6.7-9.6,8.1-9.6
			c0.6,0,0.8,0.5,0.8,1.6c0,2.8-1.3,7.3-1.3,9.8c0,2.2,1.4,4.3,2.7,4.3c1.3,0,5-4.7,5-9.3c0-8.3-7.3-10.8-9.5-10.8
			c-2.1,0-5.9,3.4-14.9,3.4c-16.8,0-20.6-16.6-20.6-23.9c0-0.3,0.1-0.4,0.2-0.4c0.4,0,2,2,7.3,2c2.7,0,5.2-0.7,9.2-0.7
			c9.3,0,13.5,6.5,19.3,14.7c3.5,2.2,11.9,5.7,11.9,15.6c0,8.7-9.3,13.6-11.5,22.9c3.6-0.4,5.7-6.8,9.4-6.8c1.9,0,2.7,1.5,2.7,3.8
			c0,3.4-2,8.6-5.7,11.8c0.1-0.3,0.1-0.7,0.1-1.2c0-2.2-0.9-5.3-3.4-5.3c-3.9,0-5.1,4.2-7.3,7.7c-2.3-8-5.3-15.1-10.8-19.5
			c-5.5-4.4-15.1-2-15.1-10.1c0-2.2,1.4-5.3,1.4-7.8c0-0.9-0.2-1.6-0.6-2.3c7.5,2.8,4.8,7.8,9.5,12.9c2.9,3.3,10.8,6.4,15.4,19.9
			c0.1-0.4,0.2-1.4,0.2-2.1c0-11.5-15.3-22.9-16.6-27.5c8.9,1,10.4,3.2,14.7,14.9C207.2,105.8,210,111.8,210,114.7z M208,76.9
			c0-1.6-4.1-1.8-4.5-6.4c-0.1-0.7-0.3-1.9-1.2-1.9c-1.4,0-0.3,4.3-1.9,4.3c-3.6,0-4.8-7-6.1-7c-0.3,0-0.7,0.2-0.7,1.2
			c0,0.9,0.2,1.4,0.2,2.4c0,1-0.2,1.7-1.2,1.7c-2.1,0-4-4.9-5.8-4.9c-0.4,0-0.8,0.2-0.8,0.6c0,0.9,1.6,2.7,1.6,3.5
			c0,1.9-5.1,0.9-5.1,2.4c0,0.7,0.7,0.9,1.6,0.9c1.6,0,4.2-0.7,5.5-0.7c0.8,0,2,0.2,2,1.2c0,1.1-2.8,2.5-2.8,3.5
			c0,0.5,0.5,0.7,0.9,0.7c2.1,0,5.8-3.7,8.5-3.7c0.5,0,1.6,0.2,1.6,0.9c0,1-2.6,2.8-2.6,4.3c0,0.4,0.2,0.9,0.7,0.9
			c1.4,0,3.3-3.7,5.9-3.7c1,0,2.5,0.4,3.3,0.4C207.7,77.5,208,77.1,208,76.9z"/>
		<path fill="#0E0E9A" d="M149.9,30.2c1.3,0,1.5,3,1.7,4.8c0.2,0.9,0.3,1,0.7,1c0.9,0,2.4-3.6,3.4-3.6c1.5,0,5.5,4.1,12.1,4.1
			c9.4,0,18.3-6.6,18.3-18.3c0-11.3-8-17.9-19-17.9c-5.2,0-9.1,2.6-11.1,2.6c-1.2,0.1-3.1-3-4-3c-0.4,0-0.8,0.8-0.8,2.1
			c0,0.9,0,3.6-0.9,3.6c-1.9,0-9.1-5.4-9.1-3.4c0,1.8,4.8,7.3,4.8,8.7c0,1.4-4.8,2.7-4.8,3.7c0,1.7,5.1,2,5.1,4.2
			c0,2.2-5.3,3.9-5.3,5.5c0,1.3,5.3,0.4,5.3,2c0,1.6-3.9,7.1-3.9,8.7c0,0.4,0.1,0.4,0.4,0.4C144.3,35.3,148.8,30.2,149.9,30.2z
			 M152.1,17.4c0-0.9-3-2.5-3-3.4c0-0.2,0.2-0.2,0.4-0.2c0.9,0,2.3,0.3,3.5,0.3c1,0,1.2-4.4,1.9-4.4c0.5,0,1.5,4.1,2.3,4.1
			c1,0,2.9-1.2,3.7-1.2c0.2,0,0.3,0.1,0.3,0.2c0,0.5-2,2.6-2,3.3c0,0.7,4.4,1.6,4.4,2.2c0,0.8-4.5,0.7-4.5,1.4
			c0,0.5,1.6,2.7,1.6,3.4c0,0.2-0.1,0.2-0.2,0.2c-0.6,0-3-1.1-3.7-1.1c-0.9,0-2.2,3.2-3,3.2c-0.2,0-0.4-0.3-0.4-0.7l-0.2-3.1
			c0-0.3-0.2-0.6-0.5-0.6c-0.9,0-2.7-0.1-3.3-0.1c-0.4,0-0.5-0.1-0.5-0.2C149,20.1,152.1,17.9,152.1,17.4z M167.3,32.2
			c-5.5,0-9.1-2.7-9.1-4.1c0-0.7,0.5-1.2,1.1-1.2c1.7,0,5.5,2.6,6.7,2.6c0.3,0,0.5-0.2,0.5-0.6c0-1.4-1.3-3.7-1.3-4.9
			c0-0.3,0.2-0.5,0.7-0.5c2.1,0,5.2,0.9,6.9,0.9c0.5,0,0.7-0.3,0.7-0.6c0-1.7-5.1-5.1-5.1-6.1c0-0.9,6.3-2.3,6.3-3.8
			c0-1.6-8.6-0.5-8.6-2c0-1.1,1.6-3,1.6-3.8c0-0.4-0.3-0.5-0.9-0.5c-0.7,0-4.5,1.5-6,1.5c-0.8,0-1.7-0.2-1.7-1.2
			c0-1.8,3-3.7,7.8-3.7c7.7,0,12.3,5.3,12.3,14.2C179.4,29.4,171.6,32.2,167.3,32.2z"/>
		<path fill="#0E0E9A" d="M114.5,167.2c0,0.7-0.2,1.5-0.9,2.3c-0.9-1.6-3.3-2.3-4.4-2.3c-8,0-5,11.6-13.6,11.6
			c-3.6,0-3.9-0.5-5.2-0.5c-0.5,0-0.9,0.2-0.9,0.7c0,2,2.9,7,10.9,7c8,0,15.8-4.9,15.8-11c0-1-0.2-2.1-0.7-3.2
			c0.3-0.5,1.1-0.8,1.8-0.8c1.2,0,1.9,1.4,3.1,1.4c1.2,0,2.2-0.9,2.2-2.2c0-1-0.5-1.7-1.5-2.2c0.6-0.5,1.1-1.2,1.1-2.1
			c0-1.3-0.9-2.6-2.5-2.6c-0.7,0-1.2,0.2-1.7,0.8c-0.2-1.4-0.9-2.7-2.4-2.7c-1.2,0-2,0.9-2,2.2C113.7,164.8,114.5,165.8,114.5,167.2
			z"/>
		<path fill="#0E0E9A" d="M93.5,170.1c-2.3,0-5.9-2.5-5.9-3.9c0-1.2,1.1-1.8,1.9-1.8c2,0,5.5,2.4,5.5,4.4
			C95.1,169.4,94.7,170.1,93.5,170.1z M71.8,152.7c6.2,1.6,9.4,4.9,10,8.9c0.6,3.8,1.4,6.9,2.9,8.5c2,2.2,5.8,4.1,9.1,4.1
			c2.8,0,5.1-0.9,5.1-3.5c0-2.8-3.8-9.1-9.4-9.1c-0.5,0-1.2,0.1-2,0.1c-0.7,0-1.7-0.2-2.3-0.7c-1.2-1.1-1.6-6.9-4-10.5
			c-2.6-3.9-5.4-5-9.2-5c-2.7,0-5.8,1.5-5.8,3.7C66.1,150.5,66.8,151.4,71.8,152.7z"/>
		<path fill="#0E0E9A" d="M110.9,143.1c0-3.5-7.3-3.6-7.3-8.9c0-1.3,0.9-3.6,2.6-6c0.7,4.1,2.3,6.2,5.9,7.5
			c6.9,2.6,7.9,6.5,7.9,10.6c0,7-4.9,15.8-17.6,15.8c-10.1,0-17.4-9-17.4-16.7c0-2.1,0.5-4.4,1.9-4.4c1.2,0,1.6,0.9,2.5,1.9
			c3.5,3.5,7.3,4.4,12.9,4.4C107.3,147.3,110.9,145.2,110.9,143.1z M111.2,148.8c-2.7,1.2-3.7,1-3.7,3.7c0,1-0.2,2.3-0.2,3
			c0,0.9,0.2,1.5,1.2,1.5c2.8,0,7.3-4.8,7.3-8.8c0-1.1-0.6-1.6-1.3-1.6C113.8,146.7,113.1,147.9,111.2,148.8z M86.4,109.4
			c0-5,11.9-7.6,11.9-13.8c0-1-0.4-2.8-1.1-4.1c4.1,2.3,7.2,6.1,7.2,9.2c0,5.4-5.6,7.9-5.6,11.2c0,3.9,6,4.5,6,9.4
			c0,4-5.7,8.6-5.7,13.7c0,4,2.8,7.3,7.1,7.8c-1.4,0.3-2.7,0.5-4,0.5c-7.9,0-16-6.5-16-14.2c0-3.8,1.6-7.2,4.1-9.6
			c2.2,1.9,4.4,3.1,5.8,3.1c1.2,0,1.8-0.6,1.8-1.6C97.8,118.2,86.4,115.5,86.4,109.4z"/>
		<path fill="#0E0E9A" d="M41.1,147.9c0.3,2.7,2.8,4.7,5.6,4.4c1-0.1,2-0.4,2.6-0.8c0.6,2.5,2.7,4.1,5.5,3.7
			c2.9-0.4,4.8-2.6,4.5-5.5c-0.1-0.8-0.2-1.2-0.5-1.8c0,0,0.4,0,0.7-0.1c2.8-0.5,4.7-2.8,4.5-5.5c-0.3-2.8-2.8-4.9-5.5-4.6
			c-1,0.1-2,0.5-2.6,1.1c-0.7-2.3-2.9-4.4-5.9-3.9c-2.7,0.4-4.5,2.8-4.2,5.7c0,0.5,0.2,1,0.4,1.6c0,0-0.5,0.1-0.8,0.1
			C43.2,142.6,40.7,144.9,41.1,147.9z M55.7,144.8c0.2,1.6-1,3.1-2.6,3.3c-1.6,0.2-3.1-1-3.3-2.6c-0.2-1.6,1-3.1,2.6-3.3
			C54,142,55.5,143.2,55.7,144.8z"/>
	</g>
</g>
</svg>
